<?xml version="1.0" encoding="utf-8"?><!-- Uploaded to: SVG Repo, www.svgrepo.com, Generator: SVG Repo Mixer Tools -->
<svg width="800px" height="800px" viewBox="0 -6.44 105.758 105.758" xmlns="http://www.w3.org/2000/svg">
  <path id="Path_22" data-name="Path 22" d="M1021.578,133.331a2,2,0,0,0,2.467,1.386l11.728-3.293a2,2,0,0,0-1.082-3.852l-11.728,3.293A2,2,0,0,0,1021.578,133.331Zm-8.092-8.394a2,2,0,0,0,2.465,1.386l11.729-3.293a2,2,0,1,0-1.08-3.85l-11.731,3.291A2,2,0,0,0,1013.486,124.937Zm-6.7-7.786a2,2,0,0,0,2.467,1.385l11.73-3.292a2,2,0,0,0-1.08-3.85l-11.732,3.292A2,2,0,0,0,1006.789,117.151Zm-3.082,6.4a2,2,0,0,0-2.465-1.389l-20.5,5.716a2,2,0,1,0,1.074,3.854l20.5-5.717A2,2,0,0,0,1003.707,123.551Zm-9,15.8a1.988,1.988,0,0,0,.541-.075l16.8-4.715a2,2,0,1,0-1.082-3.851l-16.793,4.715a2,2,0,0,0,.539,3.926Zm50.631,4.7a67.8,67.8,0,0,0-7.848-7.505,2,2,0,0,0-2.472,3.143s.886.7,2.269,1.943a59.227,59.227,0,0,1,7.733,8.355c2.562,3.432,4.441,7.256,4.41,10.357a7.061,7.061,0,0,1-.946,3.617,8.52,8.52,0,0,1-6.822,3.628,12.66,12.66,0,0,1-6.437-2.046l-.1-.056L956.092,124.7c-.024-.016-.059-.039-.1-.071-.943-.542-4.494-3.591-4.316-6.132a4.021,4.021,0,0,1,.49-1.893l9.613-18.634c.028-.052.055-.111.155-.295a20.484,20.484,0,0,1,9.281-8.463,50.508,50.508,0,0,0,3.982,11.922c2.264,4.44,6.159,8.284,12,8.254a18.038,18.038,0,0,0,6.061-1.157,2,2,0,0,0,1.232-2.491c-2.82-8.839-4.166-13.052-4.806-15.059l7.564-2.776,10.07,20.947a2,2,0,1,0,3.606-1.732l-10.856-22.583a2,2,0,0,0-2.492-1.013l-11.07,4.062a2,2,0,0,0-1.215,2.486c.006.015.006.016,4.771,14.95a12.177,12.177,0,0,1-2.865.366c-3.972-.028-6.392-2.288-8.463-6.113-2-3.787-3.177-8.859-4.125-13.16a2,2,0,0,0-2.537-1.479A24.014,24.014,0,0,0,958.2,96.19l-9.588,18.579a8.032,8.032,0,0,0-.935,3.73,10.491,10.491,0,0,0,3.267,7.063,18.426,18.426,0,0,0,2.121,1.887l-1.9,3.682a5.249,5.249,0,0,0,2.254,7.059l2.791,1.442a5.209,5.209,0,0,0,2.381.579h.012a5.252,5.252,0,0,0,4.668-2.832l1.822-3.534,4.951,2.555-1.822,3.534a5.142,5.142,0,0,0-.582,2.392,5.246,5.246,0,0,0,2.836,4.667l2.791,1.441a5.249,5.249,0,0,0,7.058-2.253l-1.775-.919,1.775.917,1.824-3.532,23.672,12.215-1.824,3.534a5.243,5.243,0,0,0,2.256,7.06l2.789,1.441a5.222,5.222,0,0,0,2.381.579h.012a5.249,5.249,0,0,0,4.668-2.833l1.822-3.534,4.951,2.555-1.822,3.533a5.153,5.153,0,0,0-.582,2.394,5.247,5.247,0,0,0,2.836,4.666l2.789,1.44a5.245,5.245,0,0,0,7.06-2.253l1.815-3.516a15.556,15.556,0,0,0,6.695,1.661,12.48,12.48,0,0,0,10.182-5.458l.058-.1a11.064,11.064,0,0,0,1.528-5.693C1053.355,154.216,1049.225,148.493,1045.338,144.05Zm-85.627-8.506a1.252,1.252,0,0,1-1.113.669,1.219,1.219,0,0,1-.559-.136l-2.789-1.44a1.25,1.25,0,0,1-.67-1.114,1.178,1.178,0,0,1,.131-.552l1.8-3.48,5,2.578Zm17.057,8.8a1.251,1.251,0,0,1-1.116.668,1.171,1.171,0,0,1-.556-.136L972.3,143.44a1.255,1.255,0,0,1-.67-1.114,1.214,1.214,0,0,1,.134-.554l1.793-3.479,5,2.577Zm35.775,18.462a1.251,1.251,0,0,1-1.113.67,1.226,1.226,0,0,1-.561-.136l-2.787-1.439a1.256,1.256,0,0,1-.672-1.115,1.174,1.174,0,0,1,.133-.549l1.8-3.483,5,2.58Zm17.055,8.8a1.247,1.247,0,0,1-1.112.669,1.208,1.208,0,0,1-.56-.134l-2.789-1.441a1.25,1.25,0,0,1-.672-1.112,1.231,1.231,0,0,1,.135-.556l1.8-3.476,5,2.576Z" transform="translate(-947.672 -83.403)" fill="#3b3859"/>
</svg>