<?xml version="1.0" standalone="no"?>
<!DOCTYPE svg PUBLIC "-//W3C//DTD SVG 20010904//EN"
 "http://www.w3.org/TR/2001/REC-SVG-20010904/DTD/svg10.dtd">
<svg version="1.0" xmlns="http://www.w3.org/2000/svg"
 width="16.000000pt" height="16.000000pt" viewBox="0 0 16.000000 16.000000"
 preserveAspectRatio="xMidYMid meet">
<metadata>
Created by potrace 1.16, written by Peter Selinger 2001-2019
</metadata>
<g transform="translate(0.000000,16.000000) scale(0.100000,-0.100000)"
fill="#000000" stroke="none">
<path d="M52 118 c-7 -7 -12 -20 -12 -30 0 -14 8 -18 35 -18 19 0 35 5 35 10
0 6 -4 10 -10 10 -5 0 -10 5 -10 10 0 6 7 10 15 10 8 0 15 5 15 10 0 14 -54
12 -68 -2z"/>
<path d="M52 53 c-22 -9 -2 -23 34 -23 35 0 46 13 18 24 -18 7 -33 7 -52 -1z"/>
</g>
</svg>
